<?xml version="1.0" encoding="UTF-8" standalone="no"?>
<!-- Created with Inkscape (http://www.inkscape.org/) -->

<svg
   width="29.643644mm"
   height="29.643381mm"
   viewBox="0 0 29.643644 29.643381"
   version="1.1"
   id="svg1"
   xml:space="preserve"
   xmlns="http://www.w3.org/2000/svg"
   xmlns:svg="http://www.w3.org/2000/svg"><defs
     id="defs1" /><g
     id="layer1"
     transform="translate(-113.71779,-185.6009)"><g
       id="g26"><path
         id="XMLID_96_"
         style="fill:#999999;stroke-width:0.264583"
         d="m 143.36144,200.42204 c 0,8.18595 -6.63575,14.82222 -14.82195,14.82222 -8.18542,0 -14.8217,-6.63627 -14.8217,-14.82222 0,-8.18515 6.63602,-14.82116 14.8217,-14.82116 8.1862,-2.7e-4 14.82195,6.63575 14.82195,14.82116 z" /><g
         id="g22"
         transform="matrix(0.26458333,0,0,0.26458333,-58.118762,54.050575)">
						<path
   id="XMLID_94_"
   style="fill:#ffffff"
   d="m 707.507,522.898 c 16.532,2.495 24.158,10.201 26.263,26.528 0.016,0.12 0.024,0.244 0.031,0.37 0.089,1.483 -0.237,3.41 1.783,3.448 1.751,0.033 1.843,-1.261 1.8,-2.546 -0.016,-0.4 -0.044,-0.795 -0.038,-1.152 0.192,-15.376 -13.483,-29.633 -29.365,-30.157 -1.197,0.171 -3.678,-0.81 -3.831,1.822 -0.099,1.774 1.983,1.481 3.357,1.687 z" />
						<path
   id="XMLID_93_"
   style="fill:#ffffff"
   d="m 710.74,527.374 c -1.592,-0.186 -3.688,-0.922 -4.06,1.239 -0.392,2.273 1.946,2.041 3.451,2.373 10.212,2.235 13.77,5.879 15.448,15.811 0.07,0.422 0.081,0.91 0.121,1.383 0.096,1.154 0.366,2.21 2.149,1.945 0.918,-0.136 1.215,-0.676 1.306,-1.326 0.091,-0.662 -0.042,-1.441 0.035,-2.014 0.083,-9.531 -8.248,-18.209 -18.45,-19.411 z" />
						<path
   id="XMLID_92_"
   style="fill:#ffffff"
   d="m 711.679,535.172 c -1.061,0.025 -2.106,0.138 -2.495,1.251 -0.583,1.659 0.644,2.06 1.902,2.254 4.19,0.66 6.394,3.08 6.81,7.175 0.055,0.524 0.246,0.997 0.548,1.343 0.333,0.386 0.803,0.61 1.381,0.544 0.348,-0.04 0.618,-0.148 0.832,-0.294 0.73,-0.492 0.814,-1.497 0.777,-2.466 0.075,-4.603 -5.23,-9.919 -9.755,-9.807 z" />
						<path
   id="XMLID_91_"
   style="fill:#ffffff"
   d="m 732.864,567.361 c -2.063,-1.631 -4.271,-3.093 -6.444,-4.587 -4.329,-2.982 -8.287,-3.215 -11.521,1.584 -1.814,2.692 -4.354,2.81 -7.01,1.629 -7.321,-3.255 -12.977,-8.268 -16.287,-15.565 -0.518,-1.146 -0.847,-2.249 -0.905,-3.295 -0.11,-1.909 0.677,-3.637 2.889,-5.111 1.815,-1.207 3.643,-2.635 3.496,-5.274 -0.189,-3.443 -8.709,-14.939 -12.073,-16.148 -1.393,-0.503 -2.779,-0.47 -4.197,-0.006 -7.889,2.602 -11.155,8.962 -8.025,16.493 1.737,4.18 3.72,8.123 5.94,11.836 9.722,16.241 24.032,28.052 42.434,35.822 1.29,0.543 2.724,0.763 3.449,0.957 5.147,0.051 11.182,-4.814 12.924,-9.639 1.68,-4.639 -1.868,-6.482 -4.67,-8.696 z" />
					</g></g></g></svg>
