<?xml version="1.0" encoding="UTF-8" standalone="no"?>
<!-- Created with Inkscape (http://www.inkscape.org/) -->

<svg
   width="22.152502mm"
   height="22.152508mm"
   viewBox="0 0 22.152502 22.152508"
   version="1.1"
   id="svg1"
   xml:space="preserve"
   xmlns="http://www.w3.org/2000/svg"
   xmlns:svg="http://www.w3.org/2000/svg"><defs
     id="defs1" /><g
     id="layer1"
     transform="translate(-45.389659,-173.87135)"><g
       id="g1"><circle
         style="fill:#000080;stroke-width:0.264583"
         cx="56.465912"
         cy="184.9476"
         r="11.076252"
         id="circle39" /><path
         style="fill:#f5f5f5;stroke-width:0.264583"
         d="m 55.62716,185.91256 c 0.356923,0.35692 1.078177,1.03505 1.570302,1.1557 0.492125,0.12065 0.855927,-0.15399 1.240631,-0.48366 0.201877,-0.17304 0.2921,-0.37333 0.782109,-0.4617 0.50747,-0.0916 1.938602,0.85937 2.281766,1.2663 1.043517,1.23719 0.107686,2.62255 -1.302014,2.74081 -1.744134,0.14632 -4.069027,-1.44145 -5.70865,-3.08107 -1.639623,-1.63962 -3.227388,-3.96452 -3.081073,-5.70865 0.118269,-1.4097 1.503627,-2.34553 2.740819,-1.30201 0.406929,0.34316 1.357841,1.77429 1.266295,2.28176 -0.08837,0.49001 -0.28866,0.58023 -0.461962,0.78211 -0.329671,0.38471 -0.604308,0.74851 -0.483658,1.24063 0.120385,0.4916 0.798512,1.21259 1.155435,1.56978 z"
         id="path39" /></g></g></svg>
