<?xml version="1.0" encoding="UTF-8" standalone="no"?>
<!-- Created with Inkscape (http://www.inkscape.org/) -->

<svg
   width="15.639145mm"
   height="16.922482mm"
   viewBox="0 0 15.639145 16.922482"
   version="1.1"
   id="svg1"
   xml:space="preserve"
   xmlns="http://www.w3.org/2000/svg"
   xmlns:svg="http://www.w3.org/2000/svg"><defs
     id="defs1" /><g
     id="layer1"
     transform="translate(-23.136676,-158.22625)"><g
       id="g2"
       transform="matrix(0.26458333,0,0,0.26458333,22.489507,158.22097)"
       style="fill:#ffffff"><path
         d="m 26.246,1.797 c 0,-0.98 -0.794,-1.777 -1.775,-1.777 H 4.223 c -0.98,0 -1.777,0.797 -1.777,1.777 v 60.404 c 0,0.984 0.797,1.778 1.777,1.778 H 24.47 c 0.981,0 1.775,-0.794 1.775,-1.778 v -0.258 -0.687 c 0.012,-1.778 -1.246,-2.142 -2.02,-2.199 H 9.509 c -2.473,0 -2.912,-1.391 -2.975,-2.107 v -2.93 c 0.012,-0.495 0.237,-2.101 2.753,-2.101 h 10.008 c 0.643,-0.016 2.338,-0.222 2.369,-2.056 V 49.05 c 0,-1.166 -0.854,-1.505 -1.567,-1.591 H 9.343 c -2.264,0 -2.729,-1.418 -2.809,-2.305 v -3.47 c 0.06,-0.727 0.469,-2.086 2.753,-2.086 h 10.527 c 0.709,-0.056 1.849,-0.403 1.849,-2.092 v -0.668 c 0,-1.259 -0.921,-1.615 -1.664,-1.701 H 9.509 c -2.442,0 -2.904,-1.412 -2.975,-2.222 V 29.497 C 6.6,28.851 7.031,27.719 9.315,27.719 h 10.239 c 0.564,-0.016 2.08,-0.222 2.11,-2.095 v -0.369 c 0,-1.837 -1.818,-1.991 -2.291,-2 H 8.696 C 7.9,23.188 6.535,22.73 6.535,20.343 v -2.532 c 0.07,-0.735 0.518,-1.969 2.809,-1.969 h 10.285 c 0.774,-0.049 2.095,-0.369 2.037,-2.048 v -0.471 c 0,-1.998 -2.664,-1.943 -2.664,-1.943 H 9.149 c -2.172,0 -2.56,-1.371 -2.615,-2.092 V 6.742 C 6.59,6.155 6.968,4.998 9.122,4.998 h 14.964 c 0.753,-0.043 2.188,-0.338 2.163,-2 V 1.944 h -0.003 z"
         fill="#241f20"
         id="path1"
         style="fill:#ffffff" /><path
         d="M 61.464,1.303 C 61.038,0.45 60.283,0.121 58.61,0.614 57.207,1.039 56.169,2.279 55.636,3.041 55.631,3.047 55.628,3.047 55.623,3.055 55.119,3.712 54.627,3.309 54.627,3.309 l 10e-4,0.012 C 54.338,3.152 54.033,3.007 53.7,2.921 50.467,2.081 46.877,5.114 45.683,9.7 c -1.09,4.183 0.209,8.178 2.897,9.492 l -0.015,0.031 c 0,0 0.884,0.544 0.249,1.72 -0.002,0.003 -0.002,0.003 -0.002,0.006 l -2.263,4.178 -1.941,3.203 C 43.965,29.385 43.25,28.327 43.25,28.327 V 28.33 L 39.157,20.931 C 38.21,19.208 39.331,18.47 39.331,18.47 l -0.013,-0.016 c 1.949,-1.738 2.781,-5.167 1.848,-8.753 -1.193,-4.585 -4.784,-7.619 -8.02,-6.779 -3.233,0.843 -4.888,5.242 -3.695,9.826 0.916,3.519 3.241,6.106 5.737,6.746 l -0.008,0.009 c 0,0 1.281,0.329 1.891,2.04 l 3.822,10.789 c 0.162,0.523 0.361,1.523 -0.129,2.335 v 0 l -0.866,1.428 c -0.003,0.006 -0.52,1.181 -0.623,1.86 l -3.883,25.821 c 0,0 0.219,0.443 0.376,0 l 7.677,-21.671 c 0,0 0.536,-1.052 0.908,0 l 7.674,21.659 c 0.007,0.009 0.365,0.479 0.543,0 L 48.29,38.202 c -0.13,-0.764 -0.728,-2.08 -0.734,-2.093 l -0.529,-0.956 c -0.52,-0.938 -0.375,-1.96 -0.203,-2.582 l 4.142,-11.688 c 10e-4,-0.006 10e-4,-0.006 0.003,-0.009 0.31,-0.871 0.933,-1.354 1.374,-1.6 0.108,-0.043 0.215,-0.107 0.322,-0.157 0.096,-0.04 0.163,-0.062 0.163,-0.062 l -0.033,-0.006 c 2.039,-1.03 3.827,-3.326 4.604,-6.303 0.323,-1.246 0.42,-2.469 0.35,-3.62 10e-4,0.001 0.017,0.02 0.017,0.02 0,0 0,0 0.021,-0.592 C 57.52,3.959 59.267,3.73 60.35,3.501 61.432,3.273 61.728,2.091 61.464,1.303 Z M 36.792,16.06 c -1.902,0.496 -4.017,-1.292 -4.718,-3.992 -0.704,-2.703 0.268,-5.295 2.175,-5.79 1.906,-0.499 4.02,1.292 4.725,3.993 0.704,2.701 -0.275,5.294 -2.182,5.789 z m 17.985,-3.992 c -0.701,2.701 -2.814,4.488 -4.72,3.992 -1.907,-0.495 -2.886,-3.088 -2.181,-5.789 0.704,-2.701 2.818,-4.492 4.726,-3.993 1.905,0.495 2.877,3.087 2.175,5.79 z"
         fill="#241f20"
         id="path2"
         style="fill:#ffffff" /></g></g></svg>
