<?xml version="1.0" encoding="UTF-8" standalone="no"?>
<!-- Created with Inkscape (http://www.inkscape.org/) -->

<svg
   width="12.7mm"
   height="12.699992mm"
   viewBox="0 0 12.7 12.699992"
   version="1.1"
   id="svg1"
   xml:space="preserve"
   xmlns="http://www.w3.org/2000/svg"
   xmlns:svg="http://www.w3.org/2000/svg"><defs
     id="defs1" /><g
     id="layer1"
     transform="translate(-125.6805,-105.15277)"><g
       id="g12"
       transform="matrix(-0.01438213,0,0,0.01438213,154.66077,102.53551)">
		<path
   style="fill:#1292fc"
   d="m 2015.019,623.5 c 0,59.6 -11.68,117.42 -34.7,171.86 -22.24,52.58 -54.08,99.8 -94.62,140.34 -40.54,40.54 -87.76,72.38 -140.34,94.62 -54.44,23.02 -112.26,34.7 -171.86,34.7 -59.6,0 -117.42,-11.68 -171.86,-34.7 -52.58,-22.24 -99.8,-54.08 -140.34,-94.62 -40.54,-40.54 -72.38,-87.76 -94.62,-140.34 -23.02,-54.44 -34.7,-112.26 -34.7,-171.86 0,-59.6 11.68,-117.42 34.7,-171.86 22.24,-52.58 54.08,-99.8 94.62,-140.34 40.54,-40.54 87.76,-72.38 140.34,-94.62 54.44,-23.02 112.26,-34.7 171.86,-34.7 59.6,0 117.42,11.68 171.86,34.7 52.58,22.24 99.8,54.08 140.34,94.62 40.54,40.54 72.38,87.76 94.62,140.34 23.02,54.44 34.7,112.26 34.7,171.86 z"
   id="path10" />
		<path
   style="fill:#ffffff"
   d="m 1778.771,403.89 -97.527,493.984 c -2.312,11.725 -17.161,15.568 -24.876,6.438 l -129.072,-152.809 1.515,-2.128 211.269,-305.788 c 2.57,-3.714 2.875,-8.474 0.805,-12.421 -2.09,-3.985 -6.309,-6.559 -10.748,-6.559 -2.654,0 -5.199,0.88 -7.364,2.545 L 1404.734,672.01 1271.302,620.989 c -11.992,-4.586 -12.288,-21.447 -0.463,-26.445 l 488.393,-206.546 c 10.526,-4.453 21.754,4.676 19.539,15.892 z"
   id="path11" />
		<path
   style="fill:#ffffff"
   d="m 1727.864,433.763 -313.992,241.74 38.024,129.114 c 3.246,11.022 17.766,13.456 24.429,4.096 l 45.685,-64.177 211.205,-305.691 c 2.423,-3.506 -1.974,-7.682 -5.351,-5.082 z"
   id="path12" />
	</g></g></svg>
