<?xml version="1.0" encoding="UTF-8" standalone="no"?>
<!-- Created with Inkscape (http://www.inkscape.org/) -->

<svg
   width="5.9528584mm"
   height="6.3500004mm"
   viewBox="0 0 5.9528584 6.3500004"
   version="1.1"
   id="svg1"
   xml:space="preserve"
   xmlns="http://www.w3.org/2000/svg"
   xmlns:svg="http://www.w3.org/2000/svg"><defs
     id="defs1" /><path
     d="m 3.0424428,3.0427035 c 0,-0.219075 0.1778,-0.396875 0.39687,-0.396875 0.21908,0 0.39688,0.1778 0.39688,0.396875 0,0.219075 -0.1778,0.396875 -0.39688,0.396875 -0.21907,0 -0.39687,-0.1778 -0.39687,-0.396875 z m -1.32292,2.513542 v 0.79375 h 2.11667 v -0.79375 c -0.38259,0 -0.75433,-0.139965 -1.05834,-0.385498 -0.304,0.245533 -0.67574,0.385498 -1.05833,0.385498 z m 4.23333,-2.513542 c 0,-0.379412 -0.23018,-0.712258 -0.56858,-0.853546 C 5.1662528,0.92921152 4.0756428,-4.4802204e-6 2.7778528,-4.4802204e-6 1.5433128,-4.4802204e-6 0.45667283,0.87523652 0.19182283,2.0909975 L -7.1652908e-6,3.1749955 H 0.39661283 c 0.49794,0 0.95831997,-0.124354 1.37159997,-0.318823 -0.0299,0.05583 -0.0487,0.118798 -0.0487,0.186531 0,0.219075 0.1778,0.396875 0.39688,0.396875 0.21907,0 0.39687,-0.1778 0.39687,-0.396875 0,-0.207169 -0.15928,-0.375179 -0.36142,-0.393435 0.62918,-0.388938 1.11469,-0.928423 1.39912,-1.389063 0.13361,-0.182827 0.23204,-0.32490798 0.30453,-0.43709198 0.5588,0.32967098 0.95462,0.90884398 1.02712,1.59755498 l 0.0206,0.197114 0.195,0.03545 c 0.18865,0.03413 0.32544,0.198173 0.32544,0.389202 0,0.218811 -0.17807,0.396875 -0.39688,0.396875 -0.0495,0 -0.23627,-0.03836 -0.28786,-0.04551 -0.0998,0.32094 -0.2413,0.611452 -0.48763,0.881857 -0.15796,-0.09393 -0.30798,-0.200555 -0.46276,-0.317765 -0.2196,-0.166158 -0.42889,-0.254 -0.66172,-0.254 -0.23283,0 -0.34925,0.12409 -0.34925,0.12409 0,0 -0.11642,-0.12409 -0.34925,-0.12409 -0.23283,0 -0.44212,0.08784 -0.66172,0.254 -0.15425,0.116946 -0.30374,0.223308 -0.46117,0.316971 -0.17066,-0.191294 -0.30664997,-0.401902 -0.39078997,-0.611188 -0.17859,0.02619 -0.36327,0.0418 -0.55033,0.04022 0.0982,0.29554 0.23733,0.543455 0.44688,0.807244 -0.12753,0.04657 -0.26406,0.08678 -0.41513,0.118798 0,0 0.52916,0.396875 1.32290997,0.396875 0.39688,0 0.81862,-0.239712 1.05834,-0.661458 0.23971,0.421746 0.66145,0.661458 1.05833,0.661458 0.79375,0 1.32292,-0.396875 1.32292,-0.396875 -0.14923,-0.03175 -0.2847,-0.07117 -0.4109,-0.11721 0.13811,-0.172773 0.25373,-0.356923 0.34025,-0.546365 0.48207,-0.03175 0.86466,-0.434181 0.86466,-0.923925 z"
     id="path1"
     style="fill:#f0ffff;fill-opacity:1;stroke-width:0.264583" /></svg>
