<?xml version="1.0" encoding="UTF-8" standalone="no"?>
<!-- Created with Inkscape (http://www.inkscape.org/) -->

<svg
   width="29.643652mm"
   height="29.643385mm"
   viewBox="0 0 29.643652 29.643385"
   version="1.1"
   id="svg1"
   xml:space="preserve"
   xmlns="http://www.w3.org/2000/svg"
   xmlns:svg="http://www.w3.org/2000/svg"><defs
     id="defs1" /><g
     id="layer1"
     transform="translate(-109.66947,-93.906079)"><g
       id="g16"
       transform="matrix(0.26458333,0,0,0.26458333,-62.167089,2.8944409)">
					<path
   id="XMLID_11_"
   style="fill:#4c75a3"
   d="m 761.5,400 c 0,30.94 -25.08,56.019 -56.02,56.019 -30.937,0 -56.019,-25.079 -56.019,-56.019 0,-30.939 25.081,-56.019 56.019,-56.019 30.94,-10e-4 56.02,25.079 56.02,56.019 z" />
					<path
   style="fill:#ffffff"
   d="m 737.826,384.765 c -0.908,-0.765 -4.409,-0.734 -7.881,-0.718 -3.549,0.021 -7.07,0.04 -7.883,0.36 -0.752,0.296 -2.451,4.385 -4.654,8.599 -2.494,4.767 -5.576,9.348 -7.524,9.318 -2.524,-0.039 -1.941,-7.873 -1.791,-13.617 0.099,-3.811 -0.521,-5.003 -1.077,-5.375 -1.347,-0.903 -5.015,-1.792 -5.015,-1.792 0,0 -10.966,-0.833 -12.538,3.942 2.086,0.274 5.691,-0.394 4.3,14.335 -0.067,0.713 -1.679,6.783 -6.808,-1.432 -1.266,-2.032 -6.188,-14.29 -7.88,-14.338 -5.689,-0.155 -11.265,-0.389 -13.256,0.718 -1.815,1.01 2.457,9.485 9.673,20.785 5.901,9.241 12.149,16.462 22.928,18.275 2.014,0.203 7.32,0.443 8.955,-0.356 1.141,-0.558 -0.245,-8.572 3.582,-9.317 1.723,-0.335 8.26,8.323 10.75,9.317 1.506,0.602 4.834,0.825 8.238,0.717 3.683,-0.119 7.836,0.322 8.239,-2.15 0.9,-5.526 -11.103,-12.712 -11.464,-16.131 -0.261,-2.446 4.392,-6.961 6.808,-10.39 2.944,-4.175 6.133,-9.201 4.298,-10.75 z"
   id="path15" />
				</g></g></svg>
