<?xml version="1.0" encoding="UTF-8" standalone="no"?>
<!-- Created with Inkscape (http://www.inkscape.org/) -->

<svg
   width="22.152498mm"
   height="22.152508mm"
   viewBox="0 0 22.152498 22.152508"
   version="1.1"
   id="svg1"
   xml:space="preserve"
   xmlns="http://www.w3.org/2000/svg"
   xmlns:svg="http://www.w3.org/2000/svg"><defs
     id="defs1" /><g
     id="layer1"
     transform="translate(-44.491748,-221.61276)"><g
       id="g45"
       transform="matrix(0.26458333,0,0,0.26458333,-26.144067,158.46757)">
			
				<linearGradient
   id="SVGID_00000025403807650654953750000016092025299547760518_"
   gradientUnits="userSpaceOnUse"
   x1="266.97"
   y1="280.52209"
   x2="350.69659"
   y2="280.52209">
				<stop
   offset="0"
   style="stop-color:#1D4DFF"
   id="stop44" />
				<stop
   offset="1"
   style="stop-color:#FF2A89"
   id="stop45" />
			</linearGradient>
			<circle
   style="fill:url(#SVGID_00000025403807650654953750000016092025299547760518_)"
   cx="308.83301"
   cy="280.522"
   r="41.862999"
   id="circle45" />
			<path
   style="fill:#f5f5f5"
   d="m 283.663,267.677 c 2.359,0 7.393,0 9.093,0 0.353,0 0.668,0.208 0.815,0.528 2.088,4.543 4.634,8.654 7.7,12.273 0.263,0.425 0.901,0.378 1.091,-0.084 0.959,-2.33 2.725,-7.998 -0.695,-12.023 -0.304,-0.358 -0.181,-0.922 0.253,-1.102 3.462,-1.443 6.855,-1.655 10.151,-0.176 0.693,0.311 1.146,0.998 1.146,1.757 l 0.772,11.672 c 0,0.519 0.474,0.934 0.981,0.826 3.8,-0.807 6.04,-6.501 8.254,-12.446 0.273,-0.732 0.964,-1.224 1.746,-1.224 h 8.373 c 0.685,0 1.238,0.611 1.112,1.284 -0.787,4.22 -5.031,9.69 -7.25,12.32 -0.768,0.91 -0.774,2.237 -0.009,3.149 l 7.487,8.915 c 0.538,0.641 0.083,1.617 -0.754,1.617 h -9.476 c -0.778,0 -1.52,-0.325 -2.047,-0.897 l -6.626,-5.516 c -0.345,-0.375 -0.995,-0.508 -1.319,-0.115 -0.821,0.998 -0.757,2.229 -1.145,5.025 -0.121,0.874 -0.907,1.503 -1.79,1.503 h -6.48 c -0.921,0 -1.831,-0.193 -2.664,-0.588 -3.718,-1.763 -13.875,-8.009 -19.587,-25.5 -0.191,-0.586 0.251,-1.198 0.868,-1.198 z"
   id="path45" />
		</g></g></svg>
